<svg id="Capa_1" 
    data-name="Capa 1"
    xmlns="http://www.w3.org/2000/svg" 
    viewBox="0 0 335.07 214">
    <defs>
        <style>
            .cls-1{fill:none;stroke-width:14px;}.cls-1,.cls-2{stroke:#0275d8;stroke-miterlimit:10;}.cls-2{fill:#0275d8;}
        </style>
    </defs>
    <title>moneyEasy</title>
        <circle class="cls-1" cx="107" cy="107" r="100"/>
            <path 
                class="cls-2" 
                     d="M3866,1435.92v16.13h-13.65v-16.13q-30.79-3.24-37.45-29.68l23.46-5.37q4,15.09,22,15.09,8.7,0,13-3.32t4.31-8a8.5,8.5,0,0,0-3.84-7.42q-3.84-2.64-15-4.85-24.22-5-31.26-13.49a30.18,30.18,0,0,1-7-19.85,32,32,0,0,1,8.87-22.75q8.88-9.43,22.95-11.14v-13.48H3866V1325q26.34,2.47,34.46,25.16l-21.5,7.17q-4.35-12.79-18.51-12.8-15,0-15,9.73a8.78,8.78,0,0,0,2.82,6.61q2.81,2.68,12.71,4.65,16.55,3.33,24.26,6.74a30.81,30.81,0,0,1,13,11,29.23,29.23,0,0,1,5.25,17q0,13-9.32,23.44T3866,1435.92Z" 
                        transform="translate(-3752.16 -1274.84)"/>
                    <rect class="cls-2" x="226.57" y="96.81" width="108" height="15" rx="7.5"/>
                <path class="cls-2" 
                    d="M3981.57,1407.66h59.66a7.5,7.5,0,0,1,7.5,7.5h0a7.5,7.5,0,0,1-7.5,7.5h-59.66a7.5,7.5,0,0,1-7.21-9.59h0A7.5,7.5,0,0,1,3981.57,1407.66Z" 
                    transform="translate(-3752.16 -1274.84)"/>
                <path class="cls-2" d="M3980,1350.66h61.26a7.5,7.5,0,0,0,7.5-7.5h0a7.5,7.5,0,0,0-7.5-7.5H3980a7.5,7.5,0,0,0-7.1,9.93h0A7.51,7.51,0,0,0,3980,1350.66Z" 
                    transform="translate(-3752.16 -1274.84)"/>
                 <path class="cls-2" d="M3961.66,1314.66h31.57a7.5,7.5,0,0,0,7.5-7.5h0a7.5,7.5,0,0,0-7.5-7.5h-31.57a7.5,7.5,0,0,0-5.84,12.2h0A7.49,7.49,0,0,0,3961.66,1314.66Z"
                     transform="translate(-3752.16 -1274.84)"/>
                 <path class="cls-2" d="M4000.73,1451.08v.15a7.43,7.43,0,0,1-7.42,7.43h-27.79a7.42,7.42,0,0,1-6.21-11.47l.1-.15a7.4,7.4,0,0,1,6.22-3.38h27.68A7.42,7.42,0,0,1,4000.73,1451.08Z" 
            transform="translate(-3752.16 -1274.84)"/>
</svg>